HIERARCHY
ROOT Pelvis
{
	OFFSET 0.000000 0.000000 0.000000
	CHANNELS 6 Xposition Yposition Zposition Xrotation Yrotation Zrotation
	JOINT LeftUpLeg_virtual
	{
		OFFSET 0.000000 0.000000 0.000000
		CHANNELS 3 Xrotation Yrotation Zrotation
		JOINT LeftUpLeg
		{
			OFFSET 18.735201 -5.666702 -4.541200
			CHANNELS 3 Xrotation Yrotation Zrotation
			JOINT LeftLeg
			{
				OFFSET -0.021200 -31.938179 0.493100
				CHANNELS 3 Xrotation Yrotation Zrotation
				JOINT LeftFoot
				{
					OFFSET 0.021200 -31.938179 -4.336299
					CHANNELS 3 Xrotation Yrotation Zrotation
					JOINT LeftToeBase
					{
						OFFSET 0.943001 -26.722000 15.023500
						CHANNELS 3 Xrotation Yrotation Zrotation
						End Site
						{
							OFFSET 0 0 0
						}
					}
				}
			}
		}
	}
	JOINT RightUpLeg_virtual
	{
		OFFSET 0.000000 0.000000 0.000000
		CHANNELS 3 Xrotation Yrotation Zrotation
		JOINT RightUpLeg
		{
			OFFSET -18.735201 -5.666702 -4.541200
			CHANNELS 3 Xrotation Yrotation Zrotation
			JOINT RightLeg
			{
				OFFSET 0.018946 -31.938133 0.493100
				CHANNELS 3 Xrotation Yrotation Zrotation
				JOINT RightFoot
				{
					OFFSET -0.018946 -31.938126 -4.336299
					CHANNELS 3 Xrotation Yrotation Zrotation
					JOINT RightToeBase
					{
						OFFSET -0.943001 -26.722004 15.023500
						CHANNELS 3 Xrotation Yrotation Zrotation
						End Site
						{
							OFFSET 0 0 0
						}
					}
				}
			}
		}
	}
	JOINT Hips_virtual
	{
		OFFSET 0.000000 0.000000 0.000000
		CHANNELS 3 Xrotation Yrotation Zrotation
		JOINT Hips
		{
			OFFSET -0.000000 -0.000000 -0.000000
			CHANNELS 3 Xrotation Yrotation Zrotation
			JOINT Spine
			{
				OFFSET 0.000000 10.199997 -0.299500
				CHANNELS 3 Xrotation Yrotation Zrotation
				JOINT Spine1
				{
					OFFSET 0.000000 11.900002 -1.516600
					CHANNELS 3 Xrotation Yrotation Zrotation
					JOINT Spine2
					{
						OFFSET 0.000000 13.600006 -2.842500
						CHANNELS 3 Xrotation Yrotation Zrotation
						JOINT Neck_virtual
						{
							OFFSET 0.000000 0.000000 0.000000
							CHANNELS 3 Xrotation Yrotation Zrotation
							JOINT Neck
							{
								OFFSET 0.000000 9.624100 -2.890100
								CHANNELS 3 Xrotation Yrotation Zrotation
								JOINT Head
								{
									OFFSET 0.000000 14.068802 -1.351900
									CHANNELS 3 Xrotation Yrotation Zrotation
									End Site
									{
										OFFSET 0 0 0
									}
								}
							}
						}
						JOINT LeftShoulder_virtual
						{
							OFFSET 0.000000 0.000000 0.000000
							CHANNELS 3 Xrotation Yrotation Zrotation
							JOINT LeftShoulder
							{
								OFFSET 15.263000 10.923401 -0.547700
								CHANNELS 3 Xrotation Yrotation Zrotation
								JOINT LeftArm
								{
									OFFSET 25.438599 -2.830597 -13.032500
									CHANNELS 3 Xrotation Yrotation Zrotation
									JOINT LeftForeArm
									{
										OFFSET 29.960503 0.000000 0.000000
										CHANNELS 3 Xrotation Yrotation Zrotation
										JOINT LeftHand
										{
											OFFSET 27.849251 0.000000 0.000000
											CHANNELS 3 Xrotation Yrotation Zrotation
											End Site
											{
												OFFSET 0 0 0
											}
										}
									}
								}
							}
						}
						JOINT RightShoulder_virtual
						{
							OFFSET 0.000000 0.000000 0.000000
							CHANNELS 3 Xrotation Yrotation Zrotation
							JOINT RightShoulder
							{
								OFFSET -15.263000 10.923401 -0.547700
								CHANNELS 3 Xrotation Yrotation Zrotation
								JOINT RightArm
								{
									OFFSET -25.438599 -2.830597 -13.032500
									CHANNELS 3 Xrotation Yrotation Zrotation
									JOINT RightForeArm
									{
										OFFSET -29.960503 0.000000 0.000000
										CHANNELS 3 Xrotation Yrotation Zrotation
										JOINT RightHand
										{
											OFFSET -27.849251 0.000000 0.000000
											CHANNELS 3 Xrotation Yrotation Zrotation
											End Site
											{
												OFFSET 0 0 0
											}
										}
									}
								}
							}
						}
					}
				}
			}
		}
	}
}
MOTION
Frames: 10
Frame Time: 0.03333333
81.120445 94.264725 160.906311 0.000000 0.000000 0.000000 0.473158 30.409826 2.180816 -26.039326 -4.506023 -5.610896 27.524068 3.442284 -16.312792 32.739279 13.306187 -0.358341 0.000000 0.000000 0.000000 0.554999 31.034132 2.978281 -23.950617 2.972913 -0.162563 43.890710 1.478281 -11.942025 44.995084 -9.237508 -1.682996 0.000000 0.000000 0.000000 0.772956 32.250473 2.813252 -0.816935 -0.140326 0.018981 4.146696 -2.381739 -3.259867 -4.094215 4.140411 -1.782786 0.000000 0.000000 0.000000 -5.932232 2.073340 0.371669 -0.337025 0.840734 0.905279 0.000000 0.000000 0.000000 -5.899296 2.427791 1.859115 0.990956 -0.492564 -0.722375 14.630088 -19.198052 -54.212236 -1.549702 -12.830223 -13.352867 0.000000 0.000000 0.000000 -4.424583 1.272340 -0.433093 3.389745 8.251698 -1.454210 15.386886 -0.166474 75.448339 5.263670 33.862080 10.954957 0.000000 0.000000 0.000000 
84.582458 94.987129 163.391724 0.000000 0.000000 0.000000 0.764195 31.140854 0.601823 -23.154193 -7.260073 -6.410510 25.357718 3.118801 -12.838902 29.353107 14.285229 5.013193 0.000000 0.000000 0.000000 0.817484 31.947599 1.300628 -30.338928 2.330447 1.849576 42.220456 1.940967 -12.228941 44.516738 -11.065776 -6.074178 0.000000 0.000000 0.000000 1.126044 33.592356 1.009242 -0.803350 -0.133963 0.015672 3.903400 -2.817458 -2.187697 -4.026288 3.703316 -1.144094 0.000000 0.000000 0.000000 -5.770350 1.679909 0.817130 -0.075046 0.516191 0.995517 0.000000 0.000000 0.000000 -5.855432 2.100867 2.433397 0.999508 -1.901047 -0.743187 12.965288 -20.174518 -54.762391 -1.069892 -12.915487 -13.505109 0.000000 0.000000 0.000000 -4.525791 0.886497 0.050218 3.229603 7.927780 -0.790744 16.299391 -1.619410 74.844059 5.823730 33.516462 10.353525 0.000000 0.000000 0.000000 
88.056015 95.228088 165.815857 0.000000 0.000000 0.000000 1.409190 33.034893 -0.995003 -21.083752 -8.210468 -5.846020 24.585201 1.213222 -10.601607 25.454387 12.871585 8.356392 0.000000 0.000000 0.000000 1.234097 33.682450 -0.477200 -35.049433 0.537678 2.893895 37.972508 4.259471 -11.462680 46.104969 -9.957647 -7.966566 0.000000 0.000000 0.000000 1.847938 35.378017 -0.979063 -0.777517 -0.065935 -0.022223 3.512520 -3.146827 -1.341840 -4.094498 3.458370 -0.406491 0.000000 0.000000 0.000000 -5.605170 1.446766 1.228778 0.156267 0.161276 1.061768 0.000000 0.000000 0.000000 -5.808513 1.897762 3.036989 0.934010 -3.307736 -0.621900 11.349047 -20.843067 -55.520221 -0.569177 -13.162566 -13.584083 0.000000 0.000000 0.000000 -4.515283 0.667267 0.563513 2.982411 7.632625 -0.082012 17.358350 -3.000978 74.059625 6.560263 33.087345 9.673877 0.000000 0.000000 0.000000 
91.523666 94.869011 167.934723 0.000000 0.000000 0.000000 2.059825 35.744743 -2.001200 -20.279130 -6.276260 -3.851914 25.915596 -1.868676 -10.226599 21.798907 9.190180 8.962786 0.000000 0.000000 0.000000 1.753995 36.246489 -1.698794 -37.842455 -2.323869 2.098308 31.740968 7.011950 -9.642892 48.335200 -7.854138 -8.663903 0.000000 0.000000 0.000000 2.826050 37.266048 -2.349233 -0.769683 0.008586 -0.045219 3.104605 -3.321754 -1.443764 -4.211175 3.394850 0.275724 0.000000 0.000000 0.000000 -5.515548 1.376828 1.537272 0.319736 -0.194482 1.088866 0.000000 0.000000 0.000000 -5.790671 1.823874 3.588076 0.838757 -4.672933 -0.219818 9.780868 -21.220344 -56.392176 -0.083454 -13.731137 -13.593799 0.000000 0.000000 0.000000 -4.305048 0.635878 1.005954 2.661974 7.266124 0.672245 18.404935 -3.992606 73.223514 7.358537 32.489332 8.979081 0.000000 0.000000 0.000000 
94.931404 94.083199 169.935410 0.000000 0.000000 0.000000 2.538068 38.640784 -2.109590 -19.802885 -2.360620 -1.164408 27.848075 -5.489051 -11.015022 19.475823 4.691440 7.397881 0.000000 0.000000 0.000000 2.111889 39.022127 -1.755269 -38.355515 -5.203340 0.118319 23.750666 9.190179 -7.349715 48.224100 -6.368694 -9.453444 0.000000 0.000000 0.000000 3.552283 39.184140 -2.480755 -0.771605 0.024659 -0.032933 2.718551 -3.432710 -2.821792 -4.339200 3.382441 0.786159 0.000000 0.000000 0.000000 -5.522779 1.395588 1.706830 0.403950 -0.532891 1.089788 0.000000 0.000000 0.000000 -5.738797 1.817525 3.999709 0.768334 -5.967436 0.443065 8.230167 -21.394980 -57.263770 0.391571 -14.520861 -13.520419 0.000000 0.000000 0.000000 -3.917199 0.718365 1.298159 2.272469 6.803332 1.455959 19.239183 -4.431326 72.506761 8.113571 31.543753 8.352258 0.000000 0.000000 0.000000 
98.369995 93.103455 171.986008 0.000000 0.000000 0.000000 2.792732 41.012369 -1.340220 -18.034363 2.105262 0.896989 28.332921 -8.930206 -11.993831 18.078193 0.746885 5.142946 0.000000 0.000000 0.000000 2.333372 41.182089 -0.862789 -37.585244 -7.399456 -2.670681 15.394983 10.760253 -4.988910 45.845183 -5.224509 -9.786040 0.000000 0.000000 0.000000 3.783799 40.796191 -1.524453 -0.789891 -0.006406 0.037022 2.465460 -3.514462 -4.937155 -4.378491 3.317917 1.082139 0.000000 0.000000 0.000000 -5.579820 1.416205 1.768216 0.434405 -0.831099 1.091363 0.000000 0.000000 0.000000 -5.609064 1.815342 4.210093 0.750190 -7.096927 1.266296 6.676018 -21.471227 -57.971866 0.871351 -15.232329 -13.351125 0.000000 0.000000 0.000000 -3.402771 0.810830 1.433972 1.857338 6.241281 2.234964 19.731110 -4.389062 71.982517 8.733848 30.180270 7.849918 0.000000 0.000000 0.000000 
101.850021 92.205627 174.610107 0.000000 0.000000 0.000000 3.076411 42.301824 -0.281887 -13.776893 5.301878 1.354614 26.002218 -11.793939 -12.645217 15.453298 -2.410020 3.230004 0.000000 0.000000 0.000000 2.519521 42.623092 0.260430 -37.384883 -8.239491 -5.907103 9.562605 12.707764 -3.058409 45.522664 -3.378592 -8.707789 0.000000 0.000000 0.000000 3.523462 41.957828 -0.140234 -0.831064 -0.051194 0.128660 2.426618 -3.607664 -6.768358 -4.267063 3.153309 1.217234 0.000000 0.000000 0.000000 -5.606185 1.367171 1.755702 0.431371 -1.073175 1.106843 0.000000 0.000000 0.000000 -5.462159 1.771698 4.211057 0.775482 -7.888910 2.013271 5.191259 -21.526045 -58.508657 1.342173 -15.624421 -13.126176 0.000000 0.000000 0.000000 -2.756815 0.833081 1.454110 1.431624 5.625078 2.938932 19.853227 -3.952996 71.658827 9.143070 28.413648 7.543285 0.000000 0.000000 0.000000 
105.278351 91.377190 177.792007 0.000000 0.000000 0.000000 3.501050 42.861069 0.264506 -8.329384 6.594392 0.773379 22.519595 -13.705330 -12.882457 11.407278 -3.998749 2.798315 0.000000 0.000000 0.000000 2.656247 43.519568 0.868903 -38.383631 -7.928013 -8.235239 8.078035 15.266642 -1.509635 48.936997 -0.723486 -6.651642 0.000000 0.000000 0.000000 2.957990 42.963393 0.771136 -0.865682 -0.054454 0.169856 2.517051 -3.763709 -7.544792 -4.106823 2.891093 1.277027 0.000000 0.000000 0.000000 -5.569209 1.239730 1.681445 0.437511 -1.249992 1.129102 0.000000 0.000000 0.000000 -5.332671 1.682756 4.035514 0.832194 -8.256928 2.535420 3.993784 -21.490683 -58.881135 1.811954 -15.537282 -12.889498 0.000000 0.000000 0.000000 -2.077493 0.744322 1.403304 0.996768 5.041144 3.513269 19.628507 -3.267355 71.627818 9.363435 26.340271 7.429648 0.000000 0.000000 0.000000 
108.627609 90.440742 181.141937 0.000000 0.000000 0.000000 3.780147 43.307989 -0.068152 -4.471900 6.662768 0.505897 22.173354 -14.623899 -12.263166 6.165260 -3.137148 5.544592 0.000000 0.000000 0.000000 2.672930 44.349204 0.392335 -40.540465 -7.676795 -9.280359 11.221557 17.406139 -0.382865 53.164717 1.320723 -5.174297 0.000000 0.000000 0.000000 2.521176 44.042935 0.519122 -0.895793 -0.001072 0.145869 2.680646 -3.950821 -7.008989 -3.947245 2.602649 1.299030 0.000000 0.000000 0.000000 -5.499719 1.086634 1.578748 0.484066 -1.348308 1.144972 0.000000 0.000000 0.000000 -5.240986 1.548959 3.750131 0.926998 -8.205273 2.828288 3.295088 -21.335610 -59.144596 2.261268 -14.999406 -12.719165 0.000000 0.000000 0.000000 -1.413411 0.581725 1.314935 0.615189 4.654473 3.943170 19.092184 -2.443145 71.933858 9.417233 24.141806 7.483784 0.000000 0.000000 0.000000 
111.858292 89.407990 184.422638 0.000000 0.000000 0.000000 3.626791 44.146928 -1.215694 -3.244835 5.991445 1.466547 26.521083 -15.022245 -10.739570 -0.291126 -1.266917 10.721333 0.000000 0.000000 0.000000 2.274199 45.639679 -0.841194 -42.741951 -7.779439 -8.643531 17.380504 18.495353 -0.107047 55.094362 1.292048 -5.408664 0.000000 0.000000 0.000000 2.120597 45.371246 -0.668769 -0.899126 0.067461 0.048929 2.910338 -4.186433 -5.544915 -3.825969 2.338132 1.293943 0.000000 0.000000 0.000000 -5.401013 0.953262 1.474377 0.586990 -1.369107 1.136516 0.000000 0.000000 0.000000 -5.261424 1.393030 3.422319 1.053408 -7.757036 2.833229 3.212333 -20.980248 -59.401035 2.668083 -13.985654 -12.666690 0.000000 0.000000 0.000000 -0.869372 0.397412 1.199911 0.348379 4.610999 4.166717 18.323762 -1.499287 72.555474 9.335622 21.977413 7.677805 0.000000 0.000000 0.000000 
